<mxfile host="app.diagrams.net" modified="2021-06-25T23:28:15.547Z" agent="5.0 (Windows NT 10.0; Win64; x64) AppleWebKit/537.36 (KHTML, like Gecko) Chrome/91.0.4472.124 Safari/537.36" etag="O1ywwElTzbxxga0zOPhK" version="14.8.1" type="github">
  <diagram id="xd14iFV3Z4DmUot1YnJN" name="Page-1">
    <mxGraphModel dx="2410" dy="219" grid="0" gridSize="10" guides="1" tooltips="1" connect="1" arrows="1" fold="1" page="0" pageScale="1" pageWidth="850" pageHeight="1100" math="0" shadow="0">
      <root>
        <mxCell id="0" />
        <mxCell id="1" parent="0" />
        <mxCell id="ow2gAG_0IgsjDUPVgIFo-1" value="" style="rounded=1;whiteSpace=wrap;html=1;" parent="1" vertex="1">
          <mxGeometry x="-1810" y="204" width="1430" height="1136" as="geometry" />
        </mxCell>
        <mxCell id="ow2gAG_0IgsjDUPVgIFo-58" value="" style="rounded=1;whiteSpace=wrap;html=1;shadow=0;glass=0;sketch=0;strokeColor=#000000;strokeWidth=1;fillColor=#ffffff;gradientColor=none;" parent="1" vertex="1">
          <mxGeometry x="-1534" y="950" width="957.75" height="330" as="geometry" />
        </mxCell>
        <mxCell id="ow2gAG_0IgsjDUPVgIFo-59" value="" style="rounded=1;whiteSpace=wrap;html=1;shadow=0;glass=0;sketch=0;strokeColor=#000000;strokeWidth=1;fillColor=#ffffff;gradientColor=none;" parent="1" vertex="1">
          <mxGeometry x="-873" y="593" width="390" height="167.76" as="geometry" />
        </mxCell>
        <mxCell id="ow2gAG_0IgsjDUPVgIFo-60" value="" style="rounded=1;whiteSpace=wrap;html=1;shadow=0;glass=0;sketch=0;strokeColor=#000000;strokeWidth=1;fillColor=#ffffff;gradientColor=none;" parent="1" vertex="1">
          <mxGeometry x="-931" y="314" width="260" height="140" as="geometry" />
        </mxCell>
        <mxCell id="ow2gAG_0IgsjDUPVgIFo-61" style="edgeStyle=orthogonalEdgeStyle;curved=1;rounded=0;orthogonalLoop=1;jettySize=auto;html=1;" parent="1" source="ow2gAG_0IgsjDUPVgIFo-62" target="ow2gAG_0IgsjDUPVgIFo-65" edge="1">
          <mxGeometry relative="1" as="geometry" />
        </mxCell>
        <mxCell id="ow2gAG_0IgsjDUPVgIFo-62" value="" style="shape=image;html=1;verticalAlign=top;verticalLabelPosition=bottom;labelBackgroundColor=#ffffff;imageAspect=0;aspect=fixed;image=https://cdn4.iconfinder.com/data/icons/essential-app-2/16/record-round-circle-dot-128.png;rounded=1;shadow=0;glass=0;sketch=0;strokeColor=#000000;strokeWidth=1;fillColor=#ffffff;gradientColor=none;" parent="1" vertex="1">
          <mxGeometry x="-927" y="375.86" width="18" height="18" as="geometry" />
        </mxCell>
        <mxCell id="ow2gAG_0IgsjDUPVgIFo-63" style="edgeStyle=orthogonalEdgeStyle;curved=1;rounded=0;orthogonalLoop=1;jettySize=auto;html=1;entryX=1;entryY=0.75;entryDx=0;entryDy=0;exitX=0.5;exitY=1;exitDx=0;exitDy=0;" parent="1" source="ow2gAG_0IgsjDUPVgIFo-65" target="ow2gAG_0IgsjDUPVgIFo-65" edge="1">
          <mxGeometry relative="1" as="geometry">
            <Array as="points">
              <mxPoint x="-833" y="434" />
              <mxPoint x="-769" y="434" />
              <mxPoint x="-769" y="394" />
            </Array>
          </mxGeometry>
        </mxCell>
        <mxCell id="ow2gAG_0IgsjDUPVgIFo-64" value="[Nombre&amp;nbsp;in NoVacio]/ ActivarDetalle" style="edgeLabel;html=1;align=center;verticalAlign=middle;resizable=0;points=[];" parent="ow2gAG_0IgsjDUPVgIFo-63" vertex="1" connectable="0">
          <mxGeometry x="-0.2707" y="2" relative="1" as="geometry">
            <mxPoint x="22" y="2" as="offset" />
          </mxGeometry>
        </mxCell>
        <mxCell id="ow2gAG_0IgsjDUPVgIFo-65" value="VerificandoNombre" style="rounded=1;whiteSpace=wrap;html=1;shadow=0;glass=0;sketch=0;strokeColor=#000000;strokeWidth=1;fillColor=#ffffff;gradientColor=none;" parent="1" vertex="1">
          <mxGeometry x="-878" y="365.74" width="157" height="38.25" as="geometry" />
        </mxCell>
        <mxCell id="ow2gAG_0IgsjDUPVgIFo-66" style="edgeStyle=orthogonalEdgeStyle;curved=1;rounded=0;orthogonalLoop=1;jettySize=auto;html=1;entryX=0.5;entryY=0;entryDx=0;entryDy=0;exitX=1;exitY=0;exitDx=0;exitDy=0;" parent="1" source="ow2gAG_0IgsjDUPVgIFo-65" target="ow2gAG_0IgsjDUPVgIFo-65" edge="1">
          <mxGeometry relative="1" as="geometry">
            <Array as="points">
              <mxPoint x="-721" y="366" />
              <mxPoint x="-721" y="344" />
              <mxPoint x="-833" y="344" />
            </Array>
          </mxGeometry>
        </mxCell>
        <mxCell id="ow2gAG_0IgsjDUPVgIFo-67" value="[Nombre in Vacio]/ DesactivarDetalle" style="edgeLabel;html=1;align=center;verticalAlign=middle;resizable=0;points=[];" parent="ow2gAG_0IgsjDUPVgIFo-66" vertex="1" connectable="0">
          <mxGeometry x="-0.162" relative="1" as="geometry">
            <mxPoint x="-19" y="-2" as="offset" />
          </mxGeometry>
        </mxCell>
        <mxCell id="ow2gAG_0IgsjDUPVgIFo-68" value="S_VerificarNombre" style="text;html=1;strokeColor=none;fillColor=none;align=center;verticalAlign=middle;whiteSpace=wrap;rounded=0;shadow=0;glass=0;sketch=0;" parent="1" vertex="1">
          <mxGeometry x="-891" y="314" width="40" height="20" as="geometry" />
        </mxCell>
        <mxCell id="ow2gAG_0IgsjDUPVgIFo-69" value="" style="rounded=1;whiteSpace=wrap;html=1;shadow=0;glass=0;sketch=0;strokeColor=#000000;strokeWidth=1;fillColor=#ffffff;gradientColor=none;" parent="1" vertex="1">
          <mxGeometry x="-1710.5" y="329" width="540" height="193.75" as="geometry" />
        </mxCell>
        <mxCell id="ow2gAG_0IgsjDUPVgIFo-70" style="edgeStyle=orthogonalEdgeStyle;curved=1;rounded=0;orthogonalLoop=1;jettySize=auto;html=1;entryX=0.5;entryY=1;entryDx=0;entryDy=0;exitX=0;exitY=0.5;exitDx=0;exitDy=0;" parent="1" source="ow2gAG_0IgsjDUPVgIFo-71" target="ow2gAG_0IgsjDUPVgIFo-72" edge="1">
          <mxGeometry relative="1" as="geometry" />
        </mxCell>
        <mxCell id="ow2gAG_0IgsjDUPVgIFo-71" value="" style="shape=image;html=1;verticalAlign=top;verticalLabelPosition=bottom;labelBackgroundColor=#ffffff;imageAspect=0;aspect=fixed;image=https://cdn4.iconfinder.com/data/icons/essential-app-2/16/record-round-circle-dot-128.png;rounded=1;shadow=0;glass=0;sketch=0;strokeColor=#000000;strokeWidth=1;fillColor=#ffffff;gradientColor=none;" parent="1" vertex="1">
          <mxGeometry x="-1620.5" y="466.49" width="18" height="18" as="geometry" />
        </mxCell>
        <mxCell id="ow2gAG_0IgsjDUPVgIFo-72" value="ActualizarColores" style="rounded=1;whiteSpace=wrap;html=1;shadow=0;glass=0;sketch=0;strokeColor=#000000;strokeWidth=1;fillColor=#ffffff;gradientColor=none;" parent="1" vertex="1">
          <mxGeometry x="-1700" y="389.75" width="104.25" height="38.25" as="geometry" />
        </mxCell>
        <mxCell id="ow2gAG_0IgsjDUPVgIFo-73" value="S_ColoresActviados" style="text;html=1;strokeColor=none;fillColor=none;align=center;verticalAlign=middle;whiteSpace=wrap;rounded=0;shadow=0;glass=0;sketch=0;" parent="1" vertex="1">
          <mxGeometry x="-1660.5" y="332.75" width="40" height="20" as="geometry" />
        </mxCell>
        <mxCell id="ow2gAG_0IgsjDUPVgIFo-74" value="ColorresActivado" style="rounded=1;whiteSpace=wrap;html=1;shadow=0;glass=0;sketch=0;strokeColor=#000000;strokeWidth=1;fillColor=#ffffff;gradientColor=none;" parent="1" vertex="1">
          <mxGeometry x="-1270" y="386.05000000000007" width="89" height="38.25" as="geometry" />
        </mxCell>
        <mxCell id="ow2gAG_0IgsjDUPVgIFo-75" style="edgeStyle=orthogonalEdgeStyle;curved=1;rounded=0;orthogonalLoop=1;jettySize=auto;html=1;entryX=0;entryY=0.5;entryDx=0;entryDy=0;exitX=1;exitY=0.5;exitDx=0;exitDy=0;" parent="1" source="ow2gAG_0IgsjDUPVgIFo-72" target="ow2gAG_0IgsjDUPVgIFo-74" edge="1">
          <mxGeometry relative="1" as="geometry">
            <mxPoint x="-1539.1300170337747" y="408.8879310344828" as="sourcePoint" />
          </mxGeometry>
        </mxCell>
        <mxCell id="ow2gAG_0IgsjDUPVgIFo-76" value="[Detalle in DetalleActivado]/&lt;br&gt;&lt;font style=&quot;font-size: 11px&quot;&gt;CambiaColor.1&amp;nbsp;&lt;span id=&quot;docs-internal-guid-8772f5fa-7fff-3052-a0d8-ee5ba60bb537&quot;&gt;&lt;span style=&quot;background-color: transparent ; vertical-align: baseline&quot;&gt;⋀&lt;/span&gt;&lt;/span&gt;&lt;br&gt;&amp;nbsp;CambiaColor.2&amp;nbsp;&lt;/font&gt;&lt;span id=&quot;docs-internal-guid-8772f5fa-7fff-3052-a0d8-ee5ba60bb537&quot;&gt;&lt;span style=&quot;background-color: transparent ; vertical-align: baseline&quot;&gt;&lt;font style=&quot;font-size: 11px&quot;&gt;⋀&lt;br&gt;CambiaColor.3&lt;br&gt;&lt;/font&gt;&lt;br&gt;&lt;/span&gt;&lt;/span&gt;" style="edgeLabel;html=1;align=center;verticalAlign=middle;resizable=0;points=[];" parent="ow2gAG_0IgsjDUPVgIFo-75" vertex="1" connectable="0">
          <mxGeometry x="0.2073" relative="1" as="geometry">
            <mxPoint x="-42" as="offset" />
          </mxGeometry>
        </mxCell>
        <mxCell id="ow2gAG_0IgsjDUPVgIFo-77" value="H" style="ellipse;whiteSpace=wrap;html=1;aspect=fixed;rounded=0;shadow=0;glass=0;sketch=0;strokeColor=#000000;strokeWidth=1;fillColor=#ffffff;gradientColor=none;" parent="1" vertex="1">
          <mxGeometry x="-1680.5" y="474.5" width="30.87" height="30.87" as="geometry" />
        </mxCell>
        <mxCell id="ow2gAG_0IgsjDUPVgIFo-78" value="" style="endArrow=classic;html=1;" parent="1" edge="1">
          <mxGeometry width="50" height="50" relative="1" as="geometry">
            <mxPoint x="-1710.5" y="539.1199999999999" as="sourcePoint" />
            <mxPoint x="-1670.5" y="505.3699999999999" as="targetPoint" />
            <Array as="points">
              <mxPoint x="-1680.5" y="539.12" />
            </Array>
          </mxGeometry>
        </mxCell>
        <mxCell id="ow2gAG_0IgsjDUPVgIFo-79" value="" style="rounded=1;whiteSpace=wrap;html=1;shadow=0;glass=0;sketch=0;strokeColor=#000000;strokeWidth=1;fillColor=#ffffff;gradientColor=none;" parent="1" vertex="1">
          <mxGeometry x="-1710.5" y="620" width="540" height="150" as="geometry" />
        </mxCell>
        <mxCell id="ow2gAG_0IgsjDUPVgIFo-80" style="edgeStyle=orthogonalEdgeStyle;curved=1;rounded=0;orthogonalLoop=1;jettySize=auto;html=1;entryX=0.5;entryY=1;entryDx=0;entryDy=0;exitX=1;exitY=0.5;exitDx=0;exitDy=0;" parent="1" source="ow2gAG_0IgsjDUPVgIFo-81" target="ow2gAG_0IgsjDUPVgIFo-82" edge="1">
          <mxGeometry relative="1" as="geometry">
            <Array as="points">
              <mxPoint x="-1647.5" y="759" />
            </Array>
          </mxGeometry>
        </mxCell>
        <mxCell id="ow2gAG_0IgsjDUPVgIFo-81" value="" style="shape=image;html=1;verticalAlign=top;verticalLabelPosition=bottom;labelBackgroundColor=#ffffff;imageAspect=0;aspect=fixed;image=https://cdn4.iconfinder.com/data/icons/essential-app-2/16/record-round-circle-dot-128.png;rounded=1;shadow=0;glass=0;sketch=0;strokeColor=#000000;strokeWidth=1;fillColor=#ffffff;gradientColor=none;" parent="1" vertex="1">
          <mxGeometry x="-1693.5" y="750" width="18" height="18" as="geometry" />
        </mxCell>
        <mxCell id="ow2gAG_0IgsjDUPVgIFo-82" value="EligiendoFondo" style="rounded=1;whiteSpace=wrap;html=1;shadow=0;glass=0;sketch=0;strokeColor=#000000;strokeWidth=1;fillColor=#ffffff;gradientColor=none;" parent="1" vertex="1">
          <mxGeometry x="-1700" y="680.75" width="104.25" height="38.25" as="geometry" />
        </mxCell>
        <mxCell id="ow2gAG_0IgsjDUPVgIFo-83" value="S_FondoSonido" style="text;html=1;strokeColor=none;fillColor=none;align=center;verticalAlign=middle;whiteSpace=wrap;rounded=0;shadow=0;glass=0;sketch=0;" parent="1" vertex="1">
          <mxGeometry x="-1660.5" y="623.75" width="40" height="20" as="geometry" />
        </mxCell>
        <mxCell id="ow2gAG_0IgsjDUPVgIFo-84" style="edgeStyle=orthogonalEdgeStyle;curved=1;rounded=0;orthogonalLoop=1;jettySize=auto;html=1;entryX=0.5;entryY=0;entryDx=0;entryDy=0;exitX=0.5;exitY=0;exitDx=0;exitDy=0;" parent="1" source="ow2gAG_0IgsjDUPVgIFo-86" target="ow2gAG_0IgsjDUPVgIFo-82" edge="1">
          <mxGeometry relative="1" as="geometry" />
        </mxCell>
        <mxCell id="ow2gAG_0IgsjDUPVgIFo-85" value="[SeleccionFondo in SinImagen]/&lt;br&gt;DesactivarSonido ⋀&lt;br&gt;BorrarFoto" style="edgeLabel;html=1;align=center;verticalAlign=middle;resizable=0;points=[];" parent="ow2gAG_0IgsjDUPVgIFo-84" vertex="1" connectable="0">
          <mxGeometry x="-0.1077" y="1" relative="1" as="geometry">
            <mxPoint x="-15" as="offset" />
          </mxGeometry>
        </mxCell>
        <mxCell id="ow2gAG_0IgsjDUPVgIFo-86" value="FondoSeleccionado" style="rounded=1;whiteSpace=wrap;html=1;shadow=0;glass=0;sketch=0;strokeColor=#000000;strokeWidth=1;fillColor=#ffffff;gradientColor=none;" parent="1" vertex="1">
          <mxGeometry x="-1295.5" y="677.05" width="114.5" height="38.25" as="geometry" />
        </mxCell>
        <mxCell id="ow2gAG_0IgsjDUPVgIFo-87" style="edgeStyle=orthogonalEdgeStyle;curved=1;rounded=0;orthogonalLoop=1;jettySize=auto;html=1;entryX=0.25;entryY=1;entryDx=0;entryDy=0;exitX=0.75;exitY=1;exitDx=0;exitDy=0;" parent="1" source="ow2gAG_0IgsjDUPVgIFo-82" target="ow2gAG_0IgsjDUPVgIFo-86" edge="1">
          <mxGeometry relative="1" as="geometry">
            <mxPoint x="-1539.1300002782948" y="699.8620689655172" as="sourcePoint" />
          </mxGeometry>
        </mxCell>
        <mxCell id="ow2gAG_0IgsjDUPVgIFo-88" value="[Fondo in Fondo(i)]/&lt;br&gt;&lt;span id=&quot;docs-internal-guid-8772f5fa-7fff-3052-a0d8-ee5ba60bb537&quot;&gt;&lt;span style=&quot;background-color: transparent ; vertical-align: baseline&quot;&gt;ActivarSonido ⋀&lt;br&gt;AgregarFoto&lt;br&gt;&lt;span style=&quot;color: rgba(0 , 0 , 0 , 0) ; font-family: monospace ; font-size: 0px ; background-color: rgb(248 , 249 , 250)&quot;&gt;3CmxGraphModel%3E%3Croot%3E%3CmxCell%20id%3D%220%22%2F%3E%3CmxCell%20id%3D%221%22%20parent%3D%220%22%2F%3E%3CmxCell%20id%3D%222%22%20value%3D%22Fondo(i)%22%20style%3D%22rounded%3D1%3BwhiteSpace%3Dwrap%3Bhtml%3D1%3Bshadow%3D0%3Bglass%3D0%3Bsketch%3D0%3BstrokeColor%3D%23000000%3BstrokeWidth%3D1%3BfillColor%3D%23ffffff%3BgradientColor%3Dnone%3B%22%20vertex%3D%221%22%20parent%3D%221%22%3E%3CmxGeometry%20x%3D%221100%22%20y%3D%22904.25%22%20width%3D%2290%22%20height%3D%2221.5%22%20as%3D%22geometry%22%2F%3E%3C%2FmxCell%3E%3C%2Froot%3E%3C%2FmxGraphModel%3E&lt;/span&gt;&lt;br&gt;&lt;/span&gt;&lt;/span&gt;" style="edgeLabel;html=1;align=center;verticalAlign=middle;resizable=0;points=[];" parent="ow2gAG_0IgsjDUPVgIFo-87" vertex="1" connectable="0">
          <mxGeometry x="0.2073" relative="1" as="geometry">
            <mxPoint x="-42" as="offset" />
          </mxGeometry>
        </mxCell>
        <mxCell id="ow2gAG_0IgsjDUPVgIFo-89" value="S_ColorModo" style="text;html=1;strokeColor=none;fillColor=none;align=center;verticalAlign=middle;whiteSpace=wrap;rounded=0;shadow=0;glass=0;sketch=0;" parent="1" vertex="1">
          <mxGeometry x="-842" y="603" width="40" height="20" as="geometry" />
        </mxCell>
        <mxCell id="ow2gAG_0IgsjDUPVgIFo-90" style="edgeStyle=orthogonalEdgeStyle;curved=1;rounded=0;orthogonalLoop=1;jettySize=auto;html=1;" parent="1" source="ow2gAG_0IgsjDUPVgIFo-91" target="ow2gAG_0IgsjDUPVgIFo-94" edge="1">
          <mxGeometry relative="1" as="geometry" />
        </mxCell>
        <mxCell id="ow2gAG_0IgsjDUPVgIFo-91" value="" style="shape=image;html=1;verticalAlign=top;verticalLabelPosition=bottom;labelBackgroundColor=#ffffff;imageAspect=0;aspect=fixed;image=https://cdn4.iconfinder.com/data/icons/essential-app-2/16/record-round-circle-dot-128.png;rounded=1;shadow=0;glass=0;sketch=0;strokeColor=#000000;strokeWidth=1;fillColor=#ffffff;gradientColor=none;" parent="1" vertex="1">
          <mxGeometry x="-840" y="685.6" width="18" height="18" as="geometry" />
        </mxCell>
        <mxCell id="ow2gAG_0IgsjDUPVgIFo-92" style="edgeStyle=orthogonalEdgeStyle;curved=1;rounded=0;orthogonalLoop=1;jettySize=auto;html=1;entryX=0.5;entryY=1;entryDx=0;entryDy=0;exitX=0.5;exitY=1;exitDx=0;exitDy=0;" parent="1" source="ow2gAG_0IgsjDUPVgIFo-94" target="ow2gAG_0IgsjDUPVgIFo-97" edge="1">
          <mxGeometry relative="1" as="geometry" />
        </mxCell>
        <mxCell id="ow2gAG_0IgsjDUPVgIFo-93" value="[CambioColor.2/ ActivarModo" style="edgeLabel;html=1;align=center;verticalAlign=middle;resizable=0;points=[];" parent="ow2gAG_0IgsjDUPVgIFo-92" vertex="1" connectable="0">
          <mxGeometry x="-0.2707" y="2" relative="1" as="geometry">
            <mxPoint x="22" y="2" as="offset" />
          </mxGeometry>
        </mxCell>
        <mxCell id="ow2gAG_0IgsjDUPVgIFo-94" value="SeleccionColores" style="rounded=1;whiteSpace=wrap;html=1;shadow=0;glass=0;sketch=0;strokeColor=#000000;strokeWidth=1;fillColor=#ffffff;gradientColor=none;" parent="1" vertex="1">
          <mxGeometry x="-791" y="675.48" width="98" height="38.25" as="geometry" />
        </mxCell>
        <mxCell id="ow2gAG_0IgsjDUPVgIFo-95" style="edgeStyle=orthogonalEdgeStyle;curved=1;rounded=0;orthogonalLoop=1;jettySize=auto;html=1;entryX=0.5;entryY=0;entryDx=0;entryDy=0;exitX=0.5;exitY=0;exitDx=0;exitDy=0;" parent="1" source="ow2gAG_0IgsjDUPVgIFo-97" target="ow2gAG_0IgsjDUPVgIFo-94" edge="1">
          <mxGeometry relative="1" as="geometry" />
        </mxCell>
        <mxCell id="ow2gAG_0IgsjDUPVgIFo-96" value="[in Vacio]/ DesactivarDetalle" style="edgeLabel;html=1;align=center;verticalAlign=middle;resizable=0;points=[];" parent="ow2gAG_0IgsjDUPVgIFo-95" vertex="1" connectable="0">
          <mxGeometry x="-0.162" relative="1" as="geometry">
            <mxPoint x="-19" y="-2" as="offset" />
          </mxGeometry>
        </mxCell>
        <mxCell id="ow2gAG_0IgsjDUPVgIFo-97" value="Detalle" style="rounded=1;whiteSpace=wrap;html=1;shadow=0;glass=0;sketch=0;strokeColor=#000000;strokeWidth=1;fillColor=#ffffff;gradientColor=none;" parent="1" vertex="1">
          <mxGeometry x="-544" y="674.62" width="49" height="38.25" as="geometry" />
        </mxCell>
        <mxCell id="ow2gAG_0IgsjDUPVgIFo-98" style="edgeStyle=orthogonalEdgeStyle;curved=1;rounded=0;orthogonalLoop=1;jettySize=auto;html=1;" parent="1" source="ow2gAG_0IgsjDUPVgIFo-99" target="ow2gAG_0IgsjDUPVgIFo-102" edge="1">
          <mxGeometry relative="1" as="geometry" />
        </mxCell>
        <mxCell id="ow2gAG_0IgsjDUPVgIFo-99" value="" style="shape=image;html=1;verticalAlign=top;verticalLabelPosition=bottom;labelBackgroundColor=#ffffff;imageAspect=0;aspect=fixed;image=https://cdn4.iconfinder.com/data/icons/essential-app-2/16/record-round-circle-dot-128.png;rounded=1;shadow=0;glass=0;sketch=0;strokeColor=#000000;strokeWidth=1;fillColor=#ffffff;gradientColor=none;" parent="1" vertex="1">
          <mxGeometry x="-1524" y="1033" width="18" height="18" as="geometry" />
        </mxCell>
        <mxCell id="ow2gAG_0IgsjDUPVgIFo-100" style="edgeStyle=orthogonalEdgeStyle;curved=1;rounded=0;orthogonalLoop=1;jettySize=auto;html=1;exitX=1;exitY=0.5;exitDx=0;exitDy=0;" parent="1" source="ow2gAG_0IgsjDUPVgIFo-102" edge="1">
          <mxGeometry relative="1" as="geometry">
            <mxPoint x="-1038.25" y="1042" as="targetPoint" />
          </mxGeometry>
        </mxCell>
        <mxCell id="ow2gAG_0IgsjDUPVgIFo-101" value="PulsarSonido ⋀ [ControlVolumen not in Volumen(0)]&amp;nbsp;&lt;br&gt;" style="edgeLabel;html=1;align=center;verticalAlign=middle;resizable=0;points=[];" parent="ow2gAG_0IgsjDUPVgIFo-100" vertex="1" connectable="0">
          <mxGeometry x="-0.2707" y="2" relative="1" as="geometry">
            <mxPoint x="41" y="2" as="offset" />
          </mxGeometry>
        </mxCell>
        <mxCell id="ow2gAG_0IgsjDUPVgIFo-102" value="SeleccionColores" style="rounded=1;whiteSpace=wrap;html=1;shadow=0;glass=0;sketch=0;strokeColor=#000000;strokeWidth=1;fillColor=#ffffff;gradientColor=none;" parent="1" vertex="1">
          <mxGeometry x="-1475" y="1022.8799999999999" width="98" height="38.25" as="geometry" />
        </mxCell>
        <mxCell id="ow2gAG_0IgsjDUPVgIFo-103" value="" style="rounded=1;whiteSpace=wrap;html=1;shadow=0;glass=0;sketch=0;strokeColor=#000000;strokeWidth=1;fillColor=#ffffff;gradientColor=none;" parent="1" vertex="1">
          <mxGeometry x="-1038.25" y="980" width="402" height="260" as="geometry" />
        </mxCell>
        <mxCell id="ow2gAG_0IgsjDUPVgIFo-104" style="edgeStyle=orthogonalEdgeStyle;curved=1;rounded=0;orthogonalLoop=1;jettySize=auto;html=1;entryX=0;entryY=0.5;entryDx=0;entryDy=0;" parent="1" source="ow2gAG_0IgsjDUPVgIFo-106" target="ow2gAG_0IgsjDUPVgIFo-111" edge="1">
          <mxGeometry relative="1" as="geometry" />
        </mxCell>
        <mxCell id="ow2gAG_0IgsjDUPVgIFo-105" value="[Foto in Imagen]" style="edgeLabel;html=1;align=center;verticalAlign=middle;resizable=0;points=[];" parent="ow2gAG_0IgsjDUPVgIFo-104" vertex="1" connectable="0">
          <mxGeometry x="-0.3783" y="-1" relative="1" as="geometry">
            <mxPoint x="17" y="-1" as="offset" />
          </mxGeometry>
        </mxCell>
        <mxCell id="ow2gAG_0IgsjDUPVgIFo-106" value="VerificarFoto" style="rounded=1;whiteSpace=wrap;html=1;shadow=0;glass=0;sketch=0;strokeColor=#000000;strokeWidth=1;fillColor=#ffffff;gradientColor=none;" parent="1" vertex="1">
          <mxGeometry x="-1011.25" y="1070" width="75" height="20" as="geometry" />
        </mxCell>
        <mxCell id="ow2gAG_0IgsjDUPVgIFo-107" value="" style="edgeStyle=orthogonalEdgeStyle;curved=1;rounded=0;orthogonalLoop=1;jettySize=auto;html=1;" parent="1" source="ow2gAG_0IgsjDUPVgIFo-108" target="ow2gAG_0IgsjDUPVgIFo-106" edge="1">
          <mxGeometry relative="1" as="geometry" />
        </mxCell>
        <mxCell id="ow2gAG_0IgsjDUPVgIFo-108" value="" style="shape=image;html=1;verticalAlign=top;verticalLabelPosition=bottom;labelBackgroundColor=#ffffff;imageAspect=0;aspect=fixed;image=https://cdn4.iconfinder.com/data/icons/essential-app-2/16/record-round-circle-dot-128.png;rounded=1;shadow=0;glass=0;sketch=0;strokeColor=#000000;strokeWidth=1;fillColor=#ffffff;gradientColor=none;" parent="1" vertex="1">
          <mxGeometry x="-982.75" y="1033" width="18" height="18" as="geometry" />
        </mxCell>
        <mxCell id="ow2gAG_0IgsjDUPVgIFo-109" style="edgeStyle=orthogonalEdgeStyle;curved=1;rounded=0;orthogonalLoop=1;jettySize=auto;html=1;entryX=0.5;entryY=0;entryDx=0;entryDy=0;" parent="1" source="ow2gAG_0IgsjDUPVgIFo-111" target="ow2gAG_0IgsjDUPVgIFo-112" edge="1">
          <mxGeometry relative="1" as="geometry" />
        </mxCell>
        <mxCell id="ow2gAG_0IgsjDUPVgIFo-110" value="[Modo not in&amp;nbsp;&lt;span style=&quot;font-size: 12px ; background-color: rgb(248 , 249 , 250)&quot;&gt;Desactivado&lt;/span&gt;]" style="edgeLabel;html=1;align=center;verticalAlign=middle;resizable=0;points=[];" parent="ow2gAG_0IgsjDUPVgIFo-109" vertex="1" connectable="0">
          <mxGeometry x="-0.168" relative="1" as="geometry">
            <mxPoint as="offset" />
          </mxGeometry>
        </mxCell>
        <mxCell id="ow2gAG_0IgsjDUPVgIFo-111" value="VerificarTono" style="rounded=1;whiteSpace=wrap;html=1;shadow=0;glass=0;sketch=0;strokeColor=#000000;strokeWidth=1;fillColor=#ffffff;gradientColor=none;" parent="1" vertex="1">
          <mxGeometry x="-828.25" y="1065.56" width="110" height="28.87" as="geometry" />
        </mxCell>
        <mxCell id="ow2gAG_0IgsjDUPVgIFo-112" value="ReproducirTono" style="rounded=1;whiteSpace=wrap;html=1;shadow=0;glass=0;sketch=0;strokeColor=#000000;strokeWidth=1;fillColor=#ffffff;gradientColor=none;" parent="1" vertex="1">
          <mxGeometry x="-834.25" y="1170" width="122" height="40" as="geometry" />
        </mxCell>
        <mxCell id="ow2gAG_0IgsjDUPVgIFo-113" value="S_Tono" style="text;html=1;strokeColor=none;fillColor=none;align=center;verticalAlign=middle;whiteSpace=wrap;rounded=0;shadow=0;glass=0;sketch=0;" parent="1" vertex="1">
          <mxGeometry x="-1500" y="960" width="40" height="20" as="geometry" />
        </mxCell>
        <mxCell id="ow2gAG_0IgsjDUPVgIFo-118" value="" style="endArrow=none;dashed=1;html=1;entryX=1;entryY=0.5;entryDx=0;entryDy=0;exitX=0;exitY=0.5;exitDx=0;exitDy=0;" parent="1" source="ow2gAG_0IgsjDUPVgIFo-1" target="ow2gAG_0IgsjDUPVgIFo-1" edge="1">
          <mxGeometry width="50" height="50" relative="1" as="geometry">
            <mxPoint x="-900" y="1040" as="sourcePoint" />
            <mxPoint x="-850" y="990" as="targetPoint" />
          </mxGeometry>
        </mxCell>
        <mxCell id="ow2gAG_0IgsjDUPVgIFo-119" value="" style="endArrow=none;dashed=1;html=1;exitX=0.5;exitY=0;exitDx=0;exitDy=0;" parent="1" source="ow2gAG_0IgsjDUPVgIFo-1" edge="1">
          <mxGeometry width="50" height="50" relative="1" as="geometry">
            <mxPoint x="-1290.0000000000005" y="390.0000000000001" as="sourcePoint" />
            <mxPoint x="-1095" y="772" as="targetPoint" />
          </mxGeometry>
        </mxCell>
        <mxCell id="ow2gAG_0IgsjDUPVgIFo-120" value="" style="endArrow=none;dashed=1;html=1;exitX=1.002;exitY=0.294;exitDx=0;exitDy=0;entryX=-0.003;entryY=0.301;entryDx=0;entryDy=0;entryPerimeter=0;exitPerimeter=0;" parent="1" source="ow2gAG_0IgsjDUPVgIFo-1" target="ow2gAG_0IgsjDUPVgIFo-1" edge="1">
          <mxGeometry width="50" height="50" relative="1" as="geometry">
            <mxPoint x="-1085" y="320" as="sourcePoint" />
            <mxPoint x="-1085" y="959" as="targetPoint" />
          </mxGeometry>
        </mxCell>
        <mxCell id="-3oenE4ugL9oatwC_BDJ-202" value="&lt;font style=&quot;font-size: 36px&quot;&gt;S&lt;/font&gt;" style="text;html=1;strokeColor=none;fillColor=none;align=center;verticalAlign=middle;whiteSpace=wrap;rounded=0;" vertex="1" parent="1">
          <mxGeometry x="-1693.5" y="226" width="197.5" height="66" as="geometry" />
        </mxCell>
      </root>
    </mxGraphModel>
  </diagram>
</mxfile>
